<svg width="33" viewBox="0 0 33 33" fill="none" xmlns="http://www.w3.org/2000/svg">
<path d="M2 29.8561V5.22222C2 4.36764 2.33948 3.54805 2.94377 2.94377C3.54805 2.33948 4.36764 2 5.22222 2H27.7778C28.6324 2 29.4519 2.33948 30.0562 2.94377C30.6605 3.54805 31 4.36764 31 5.22222V21.3333C31 22.1879 30.6605 23.0075 30.0562 23.6118C29.4519 24.2161 28.6324 24.5556 27.7778 24.5556H9.99272C9.50977 24.5556 9.033 24.6642 8.59768 24.8734C8.16236 25.0825 7.77963 25.3869 7.47778 25.7639L3.72228 30.4587C3.5973 30.6153 3.42673 30.7292 3.23417 30.7847C3.04162 30.8401 2.83658 30.8344 2.64744 30.7682C2.4583 30.702 2.2944 30.5787 2.17841 30.4153C2.06242 30.2519 2.00007 30.0565 2 29.8561Z" stroke="white" stroke-width="2.9"/>
</svg>
