<svg width="33" viewBox="0 0 33 33" fill="none" xmlns="http://www.w3.org/2000/svg">
<path d="M14.2692 12.7635L10.9231 8.5808C15.2245 6.49905 17.6361 6.62218 21.9375 8.5808L19.0096 12.7635M20.4038 16.9462L26.5385 15.9423C26.2057 20.9589 24.7361 22.9208 20.8221 25.5625L18.4519 20.2923M14.5481 20.2923L12.5962 25.5625C8.48809 22.5552 7.24685 20.4622 7.01923 15.9423L11.7596 16.5M16.5 2C8.49187 2 2 8.49187 2 16.5C2 24.5081 8.49187 31 16.5 31C24.5081 31 31 24.5081 31 16.5C31 8.49187 24.5081 2 16.5 2ZM16.5 13.2933C14.7294 13.2539 13.2933 14.729 13.2933 16.5C13.2933 18.271 14.7294 19.7461 16.5 19.7067C18.2325 19.6682 19.5673 18.233 19.5673 16.5C19.5673 14.767 18.2325 13.3318 16.5 13.2933Z" stroke="white" stroke-width="2.9" stroke-linecap="round" stroke-linejoin="round"/>
</svg>
