<svg width="33" viewBox="0 0 33 35" fill="none" xmlns="http://www.w3.org/2000/svg">
<path d="M16.5001 21.9932C19.0482 21.9932 21.1139 19.9275 21.1139 17.3794C21.1139 14.8312 19.0482 12.7656 16.5001 12.7656C13.9519 12.7656 11.8862 14.8312 11.8862 17.3794C11.8862 19.9275 13.9519 21.9932 16.5001 21.9932Z" stroke="white" stroke-width="2.9"/>
<path d="M19.2145 2.23377C18.65 2 17.9334 2 16.5 2C15.0666 2 14.35 2 13.7855 2.23377C13.4121 2.38835 13.0728 2.61502 12.787 2.90081C12.5012 3.1866 12.2745 3.52592 12.1199 3.89936C11.9785 4.24232 11.9215 4.64372 11.9 5.2266C11.8904 5.64798 11.7739 6.06001 11.5614 6.424C11.3489 6.78798 11.0473 7.09198 10.685 7.30744C10.3173 7.51359 9.90322 7.62287 9.48166 7.62502C9.06009 7.62718 8.6449 7.52213 8.27509 7.31974C7.75834 7.04599 7.38462 6.89527 7.01397 6.84606C6.20551 6.73974 5.38791 6.9588 4.7409 7.45508C4.25798 7.8288 3.8981 8.44859 3.18142 9.68971C2.46474 10.9308 2.10486 11.5506 2.02643 12.1581C1.97358 12.5587 2.00016 12.9657 2.10466 13.356C2.20916 13.7463 2.38952 14.1122 2.63545 14.4327C2.86307 14.728 3.18142 14.9756 3.6751 15.2863C4.40255 15.743 4.87008 16.5212 4.87008 17.3794C4.87008 18.2376 4.40255 19.0158 3.6751 19.471C3.18142 19.7832 2.86153 20.0308 2.63545 20.3261C2.38952 20.6467 2.20916 21.0126 2.10466 21.4028C2.00016 21.7931 1.97358 22.2002 2.02643 22.6007C2.1064 23.2067 2.46474 23.828 3.17989 25.0691C3.8981 26.3102 4.25645 26.93 4.7409 27.3038C5.06146 27.5497 5.42733 27.7301 5.81762 27.8346C6.2079 27.9391 6.61495 27.9656 7.01551 27.9128C7.38462 27.8636 7.75834 27.7129 8.27509 27.4391C8.6449 27.2367 9.06009 27.1317 9.48166 27.1338C9.90322 27.136 10.3173 27.2453 10.685 27.4514C11.4279 27.882 11.8693 28.6741 11.9 29.5322C11.9215 30.1167 11.9769 30.5165 12.1199 30.8595C12.2745 31.2329 12.5012 31.5722 12.787 31.858C13.0728 32.1438 13.4121 32.3705 13.7855 32.5251C14.35 32.7588 15.0666 32.7588 16.5 32.7588C17.9334 32.7588 18.65 32.7588 19.2145 32.5251C19.5879 32.3705 19.9272 32.1438 20.213 31.858C20.4988 31.5722 20.7255 31.2329 20.8801 30.8595C21.0215 30.5165 21.0785 30.1167 21.1 29.5322C21.1307 28.6741 21.5721 27.8805 22.315 27.4514C22.6827 27.2453 23.0968 27.136 23.5183 27.1338C23.9399 27.1317 24.3551 27.2367 24.7249 27.4391C25.2417 27.7129 25.6154 27.8636 25.9845 27.9128C26.385 27.9656 26.7921 27.9391 27.1824 27.8346C27.5727 27.7301 27.9385 27.5497 28.2591 27.3038C28.7436 26.9316 29.1019 26.3102 29.8186 25.0691C30.5353 23.828 30.8951 23.2082 30.9736 22.6007C31.0264 22.2002 30.9998 21.7931 30.8953 21.4028C30.7908 21.0126 30.6105 20.6467 30.3645 20.3261C30.1369 20.0308 29.8186 19.7832 29.3249 19.4726C28.9646 19.2536 28.6659 18.9466 28.4569 18.5804C28.2478 18.2143 28.1353 17.801 28.1299 17.3794C28.1299 16.5212 28.5975 15.743 29.3249 15.2878C29.8186 14.9756 30.1385 14.728 30.3645 14.4327C30.6105 14.1122 30.7908 13.7463 30.8953 13.356C30.9998 12.9657 31.0264 12.5587 30.9736 12.1581C30.8936 11.5522 30.5353 10.9308 29.8201 9.68971C29.1019 8.44859 28.7436 7.8288 28.2591 7.45508C27.9385 7.20915 27.5727 7.02878 27.1824 6.92428C26.7921 6.81979 26.385 6.7932 25.9845 6.84606C25.6154 6.89527 25.2417 7.04599 24.7234 7.31974C24.3538 7.52185 23.9388 7.62675 23.5176 7.6246C23.0963 7.62245 22.6825 7.51331 22.315 7.30744C21.9527 7.09198 21.6511 6.78798 21.4386 6.424C21.2261 6.06001 21.1096 5.64798 21.1 5.2266C21.0785 4.64218 21.0231 4.24232 20.8801 3.89936C20.7255 3.52592 20.4988 3.1866 20.213 2.90081C19.9272 2.61502 19.5879 2.38835 19.2145 2.23377Z" stroke="white" stroke-width="2.9"/>
</svg>
