<svg width="33" viewBox="0 0 33 21" fill="none" xmlns="http://www.w3.org/2000/svg">
<path d="M16.5 7.8L19.4 13.6V17.95C19.4 18.3346 19.5528 18.7034 19.8247 18.9753C20.0966 19.2472 20.4654 19.4 20.85 19.4H23.75C24.1346 19.4 24.5034 19.2472 24.7753 18.9753C25.0472 18.7034 25.2 18.3346 25.2 17.95V13.6C25.2 10.5235 23.9779 7.57298 21.8024 5.39756C19.627 3.22214 16.6765 2 13.6 2C10.5235 2 7.57298 3.22214 5.39756 5.39756C3.22214 7.57298 2 10.5235 2 13.6V17.95C2 18.3346 2.15277 18.7034 2.4247 18.9753C2.69662 19.2472 3.06544 19.4 3.45 19.4H6.35C6.73456 19.4 7.10338 19.2472 7.3753 18.9753C7.64723 18.7034 7.8 18.3346 7.8 17.95V13.6L10.7 7.8M16.5 7.8H10.7M16.5 7.8L21.111 4.755M10.7 7.8L6.089 4.755" stroke="white" stroke-width="2.9" stroke-linecap="round" stroke-linejoin="round"/>
<path d="M23.6485 7.79968H28.1C28.8691 7.79968 29.6068 8.10522 30.1506 8.64907C30.6945 9.19293 31 9.93055 31 10.6997C31 11.4688 30.6945 12.2064 30.1506 12.7503C29.6068 13.2941 28.8691 13.5997 28.1 13.5997H2" stroke="white" stroke-width="2.9" stroke-linecap="round" stroke-linejoin="round"/>
</svg>
