<svg width="49" height="48" viewBox="0 0 49 48" fill="none" xmlns="http://www.w3.org/2000/svg">
<path fill-rule="evenodd" clip-rule="evenodd" d="M2.96172 11.8594C17.3916 -9.63319 45.5299 1.1131 48.0552 20.0982C47.3337 29.4116 40.4795 35.5012 29.657 31.9191L18.8346 28.337C13.7841 27.2624 9.09443 27.9788 6.92994 31.9191C5.59905 37.1092 10.5374 36.934 18.1131 36.5758C23.8029 36.3067 26.0783 36.4124 28.0475 36.5037C28.7002 36.534 29.3192 36.5628 30.0178 36.5758C31.4608 36.5758 31.7637 37.5251 30.7393 38.3668C29.4441 39.1351 27.2841 39.3419 25.4262 39.5199C24.5697 39.6019 23.7774 39.6778 23.1636 39.7997C21.3598 40.1579 21.7206 41.2325 22.8028 41.5907C27.4926 43.3817 32.543 42.3071 40.1187 37.6504C40.5367 37.3935 41.3667 36.7604 42.3696 35.9954C43.0122 35.5052 43.7259 34.9608 44.4477 34.4265C45.1776 34.0808 45.4278 34.1535 45.5299 34.7847C34.7076 55.9191 3.68329 50.5459 0.0757517 26.9041C-0.28504 20.8146 4.07261 13.2605 15.2271 15.0832C16.1654 15.3704 17.05 15.6404 17.888 15.8963C22.079 17.1757 25.1056 18.0997 27.8533 19.0235C32.543 20.8146 38.6757 20.4564 41.201 16.5161C41.5233 15.5845 41.6836 15.0402 41.5617 13.6504C41.3972 10.9145 38.8406 10.9604 33.2645 11.8594C31.3632 12.1659 30.3614 12.1852 28.5748 12.2176C23.8745 12.1576 21.4254 12.0997 18.1131 11.8594C17.0309 11.8594 15.3874 11.2568 17.0309 10.0683C18.1757 9.36902 19.1452 9.14777 21.3598 8.9937L24.2458 8.9937C25.6888 8.63549 26.3273 7.8088 24.9673 7.20265C18.8346 4.6952 10.1767 6.48623 4.04396 13.2922C2.45517 13.5932 2.28261 13.2319 2.96172 11.8594ZM16.3095 19.0235C7.2908 16.5161 2.94099 20.4257 1.87958 28.337C6.18959 23.4867 9.58415 20.2271 21.3598 24.3504C25.4405 26.2866 29.1066 27.9151 32.1824 29.0534C40.4796 31.5609 45.5073 27.9622 46.2515 19.74C38.7831 29.6278 30.964 25.9383 16.9185 19.3109L16.3095 19.0235ZM27.1319 29.4116C26.8916 29.2866 26.6496 29.1602 26.4058 29.0329C18.9634 25.1467 9.94795 20.439 2.96172 30.8444C2.24033 32.2773 3.43094 32.8932 4.04407 31.9191C9.45528 23.3221 16.2019 25.2121 27.1319 29.4116ZM43.7263 16.1579C38.3151 24.0385 33.3667 24.0706 20.2777 19.0235C32.9039 25.5532 39.7581 25.8295 44.8086 16.8743C45.1693 15.7997 44.1531 15.5363 43.7263 16.1579Z" fill="white"/>
</svg>
