<svg width="1060" height="1060" viewBox="0 0 1060 1060" fill="none" xmlns="http://www.w3.org/2000/svg">
<rect width="1060" height="1060" fill="#092147"/>
<path fill-rule="evenodd" clip-rule="evenodd" d="M272.475 380.771C448.594 116.592 792.027 248.682 822.848 482.04C814.042 596.518 730.385 671.368 598.296 627.339L466.206 583.309C404.564 570.1 347.326 578.906 320.908 627.339C304.664 691.134 364.937 688.98 457.4 684.577C526.845 681.27 554.616 682.568 578.65 683.692C586.617 684.064 594.172 684.417 602.699 684.577C620.311 684.577 624.008 696.246 611.505 706.592C595.696 716.035 569.333 718.578 546.657 720.765C536.203 721.773 526.533 722.706 519.042 724.204C497.027 728.607 501.43 741.816 514.639 746.219C571.878 768.234 633.52 755.025 725.982 697.786C731.084 694.628 741.214 686.847 753.454 677.443C761.298 671.418 770.008 664.727 778.818 658.159C787.727 653.91 790.78 654.804 792.027 662.562C659.938 922.338 281.282 856.294 237.251 565.697C232.848 490.846 286.033 397.994 422.176 420.398C433.628 423.927 444.424 427.247 454.652 430.391C505.804 446.118 542.744 457.475 576.281 468.831C633.52 490.846 708.37 486.443 739.191 438.01C743.126 426.559 745.081 419.87 743.594 402.786C741.586 369.158 710.382 369.722 642.325 380.771C619.119 384.539 606.892 384.777 585.087 385.174C527.718 384.437 497.828 383.725 457.4 380.771C444.191 380.771 424.132 373.365 444.191 358.756C458.164 350.161 469.997 347.441 497.027 345.548L532.251 345.548C549.863 341.145 557.656 330.983 541.057 323.533C466.206 292.712 360.534 314.727 285.684 398.383C266.292 402.083 264.186 397.642 272.475 380.771ZM435.387 468.831C325.312 438.01 272.222 486.066 259.267 583.309C311.871 523.691 353.303 483.625 497.027 534.307C546.832 558.106 591.577 578.123 629.118 592.115C730.386 622.936 791.75 578.702 800.834 477.637C709.681 599.175 614.247 553.825 442.82 472.363L435.387 468.831ZM567.476 596.518C564.544 594.982 561.589 593.428 558.614 591.863C467.778 544.095 357.743 486.229 272.475 614.13C263.67 631.742 278.202 639.312 285.685 627.339C351.73 521.667 434.073 544.899 567.476 596.518ZM770.013 433.607C703.969 530.473 643.572 530.868 483.819 468.831C637.924 549.091 721.58 552.488 783.222 442.413C787.625 429.204 775.222 425.967 770.013 433.607Z" fill="white"/>
</svg>
